<?xml version="1.0" encoding="utf-8"?>
<svg width="300px" height="300px" viewBox="0 0 100 100" version="1.1" xmlns:xlink="http://www.w3.org/1999/xlink" xmlns="http://www.w3.org/2000/svg">
    <path d="M0 67.32163035736707L1 1.406024700156225L2 6.4367778784929754L3 51.71603816857338L4 78.65942519851048L5 35.72451126191612L6 12.17414667913046L7 1.1132751112348083L8 1.5458961112828773L9 50.2357272780397L10 14.44090312715656L11 8.347181589816353L12 10.37671851226408L13 96.74712421860792L14 47.44090671937879L15 47.922765831025295L16 33.81284648201427L17 66.03695762892995L18 13.574769792860856L19 8.153582334239287L20 1.64043030018227L21 9.038344245448705L22 6.47484722294165L23 7.5798178973109085L24 1.7501541668611282L25 20.148772466831968L26 9.469546856607728L27 99.74591199971768L28 0.150603033350067L29 96.26425644029362L30 44.59816538288685L31 18.27998686977763L32 43.83043048700478L33 12.594950745843883L34 10.732117890081346L35 7.6397019452933L36 2.5091810669454646L37 7.243680011915965L38 3.7678532337519837L39 71.02397530113775L40 78.51846053168718L41 52.62429972513811L42 72.81656630312952L43 4.182433944909159L44 75.69021130632245L45 1.4891498905434999L46 1.5031639335003515L47 26.517431473908257L48 97.17422577463803L49 67.4579276305088L50 34.88814870543128L51 4.335054004816727L52 12.42832125693648L53 1.9190392335465598L54 10.155927900173253L55 12.590007756954446L56 92.38091876931213L57 5.6288588117365395L58 33.44685270382983L59 1.8621181335402353L60 12.640770945848974L61 34.21548726023943L62 5.216027456135114L63 84.18551087131723L64 93.630901770701L65 6.713498734079278L66 31.37787970153098L67 8.234891056470543L68 8.123148256458128L69 12.144027235715585L70 59.75103288612259L71 20.855427800950476L72 4.098695033788744L73 79.63977342182197L74 48.39578849821754L75 0.9798099445533122L76 1.3242045890360228L77 13.591468681768298L78 12.358475479150941L79 72.06593274673993L80 7.221875911913542L81 52.202857058003175L82 4.790849089421205L83 10.724565845636063L84 0.017138022224126446L85 94.07348543785943L86 10.875055556763895L87 0.0391950888932439L88 12.206526834689614L89 65.2517308502797L90 7.838878589759876L91 9.540926689948991L92 6.608979467400998L93 2.1912495224656943L94 8.6164006231796L95 1.5644236335071582L96 62.235563735817294L97 70.83850107870944L98 63.174031070193365L99 95.44556110605062L100 2.4124756447124973" id="Seed42" fill="none" fill-rule="evenodd" stroke="#808080" stroke-width="0.5" />
</svg>
