<?xml version="1.0" encoding="utf-8"?>
<svg width="300px" height="300px" viewBox="0 0 100 100" version="1.1" xmlns:xlink="http://www.w3.org/1999/xlink" xmlns="http://www.w3.org/2000/svg">
    <path d="M0 85.15568653906188L1 7.394133178599348L2 3.1757078225750788L3 49.220374165800415L4 2.927034066991893L5 11.24874734583194L6 12.000083379111121L7 10.525709578947302L8 83.69981720411091L9 43.293445825881605L10 15.461486683846097L11 5.655045811739449L12 3.972864867108096L13 6.759083756306564L14 57.35515306372795L15 2.737360055859707L16 0.6383110778487012L17 12.236740601359639L18 3.248431811472048L19 0.2867187000318576L20 66.73211840748013L21 5.28655045031839L22 6.519547850217198L23 33.18481370353868L24 9.49900234388778L25 6.0979794451219975L26 3.7484640337498294L27 5.28112487836457L28 49.08173461009082L29 8.52482715650276L30 58.86516843183521L31 10.224811478913868L32 96.92650177436278L33 9.892795356654755L34 2.9551661781061296L35 10.583607367842623L36 31.600137146222373L37 0.008107355556456372L38 7.945103342161226L39 53.01235961445818L40 5.24881777836098L41 0.7241202111915689L42 89.14150465460168L43 1.4374680001597187L44 9.96387393444043L45 4.526352333836261L46 3.460465689273385L47 8.661620256517958L48 80.210599200234L49 97.89287121988097L50 11.526720679058524L51 0.40830457782314494L52 11.988059701332007L53 93.31192465923547L54 55.49115139499017L55 56.91511750768346L56 2.858413578095379L57 7.005859123000651L58 14.873853349859838L59 63.178083403531204L60 6.3553127340394795L61 9.920826978880092L62 68.6405265207117L63 0.625626300069514L64 93.11157881235087L65 16.74022690748914L66 7.350090300816677L67 2.6358727558484305L68 6.724816741386853L69 3.9570941115507883L70 4.170218656018913L71 7.015025467446114L72 2.380559944708951L73 29.921258255468064L74 39.060293154511434L75 11.304355723478261L76 9.286414101031824L77 0.12226260001358473L78 0.5273508222808168L79 8.48021954538669L80 3.418272889268697L81 14.941835794379818L82 12.712556569680618L83 6.875844118750938L84 11.6278964124031L85 6.74286652297143L86 9.503627601055959L87 0.10735720001192858L88 12.482516545831391L89 6.063941967340438L90 4.342880889371431L91 79.1579295323977L92 62.76154773640172L93 82.50770698056412L94 50.677646278530716L95 44.885418716539355L96 47.50888983056543L97 74.68443749649374L98 65.45239596161377L99 11.043719079004857L100 53.16413161462681" id="Seed42" fill="none" fill-rule="evenodd" stroke="#808080" stroke-width="0.5" />
</svg>
