<?xml version="1.0" encoding="utf-8"?>
<svg width="300px" height="300px" viewBox="0 0 100 100" version="1.1" xmlns:xlink="http://www.w3.org/1999/xlink" xmlns="http://www.w3.org/2000/svg">
    <path d="M0 7.5634173713041255L1 20.275027689194474L2 6.918334145213148L3 98.32707322036342L4 1.6012103335112455L5 41.13458582348287L6 0.11417155568241284L7 5.087231978343026L8 5.097532478344171L9 11.191530101243503L10 80.39604897821783L11 1.282646277920294L12 8.716494356524056L13 71.38115857090176L14 1.6453318907170353L15 1.528027811280892L16 4.903136967211459L17 7.257476747305297L18 80.3754267559727L19 4.838068005375631L20 88.50492265389435L21 5.275924100586214L22 2.9424189892158243L23 11.08996841234333L24 9.079217334342136L25 1.4618992557179888L26 10.83256656759174L27 4.4920030893880005L28 88.15020187572244L29 5.619948167291105L30 10.609989967845554L31 7.075642511897294L32 51.51261250168068L33 0.2143630002381811L34 6.452486778494721L35 67.20862596356514L36 3.9842331004426925L37 6.937546100770838L38 12.535961990281773L39 76.06209130673565L40 47.834663053149626L41 12.333451912481495L42 6.13223770068136L43 6.8646592896516285L44 4.434727611603859L45 6.232416118036018L46 3.9602803115511422L47 9.998823234444314L48 53.96002161551114L49 93.02070643668968L50 7.1781666785753515L51 0.28801281114311256L52 45.624078717360085L53 54.48421606053802L54 74.61285208290317L55 28.619054476243395L56 0.4976458222775162L57 10.307802178923088L58 10.58343922339816L59 3.340100337044556L60 10.474752467830529L61 0.9272740667696971L62 1.2080949890231216L63 65.01311385001458L64 12.43108667915901L65 0.6756317000750702L66 52.393441947103824L67 10.538600900598446L68 11.503424756833715L69 6.4861036738734485L70 0.8362255334262473L71 80.54877575616531L72 55.00318172778131L73 10.693422367854824L74 1.5291540557254615L75 99.7099794441222L76 11.341545145704616L77 0.8393928898215477L78 7.059326945228814L79 7.266685211918521L80 8.641379056515708L81 18.802232687558035L82 26.75069918611888L83 5.316072233924008L84 9.606072412178452L85 3.910379944878931L86 6.455890056272876L87 6.197893378466433L88 12.736882790304097L89 10.091047756676783L90 44.5313542717015L91 61.980124846644586L92 72.64438952516043L93 1.1360764667928973L94 2.9934083558881563L95 9.074795178786088L96 87.21519076357244L97 8.968114856552013L98 53.150493170167216L99 88.00590498667323L100 1.7094611224121623" id="Seed42" fill="none" fill-rule="evenodd" stroke="#000000" stroke-width="0.5" />
</svg>